<?xml version="1.0" encoding="UTF-8"?>
<svg xmlns="http://www.w3.org/2000/svg" width="222" height="227" viewBox="0 0 222 227" role="img" aria-labelledby="title desc">
  <title id="title">GPU icon</title>
  <desc id="desc">Vectorized black GPU icon converted from the provided PNG.</desc>
  <path fill="#000000" fill-rule="evenodd" d="M 7.0 151.0 L 7.0 154.0 L 9.0 154.0 L 9.0 151.0 Z M 4.0 124.0 L 4.0 147.0 L 9.0 147.0 L 9.0 124.0 Z M 7.0 117.0 L 7.0 120.0 L 9.0 120.0 L 9.0 117.0 Z M 7.0 96.0 L 7.0 99.0 L 9.0 99.0 L 9.0 96.0 Z M 4.0 69.0 L 4.0 92.0 L 9.0 92.0 L 9.0 69.0 Z M 7.0 62.0 L 7.0 65.0 L 9.0 65.0 L 9.0 62.0 Z M 24.0 56.0 L 24.0 166.0 L 38.0 166.0 L 39.0 157.0 L 64.0 157.0 L 65.0 173.0 L 119.0 173.0 L 121.0 157.0 L 136.0 157.0 L 137.0 173.0 L 151.0 173.0 L 151.0 158.0 L 166.0 157.0 L 167.0 173.0 L 188.0 173.0 L 188.0 164.0 L 180.0 161.0 L 182.0 157.0 L 220.0 157.0 L 220.0 73.0 L 209.0 58.0 Z M 182.0 130.0 L 184.0 128.0 L 209.0 128.0 L 210.0 129.0 L 210.0 135.0 L 209.0 136.0 L 184.0 136.0 L 182.0 134.0 Z M 182.0 120.0 L 184.0 118.0 L 208.0 118.0 L 210.0 120.0 L 210.0 125.0 L 209.0 126.0 L 184.0 126.0 L 182.0 123.0 L 183.0 121.0 Z M 193.0 91.0 L 197.0 91.0 L 201.0 93.0 L 204.0 98.0 L 204.0 102.0 L 203.0 104.0 L 199.0 108.0 L 196.0 108.0 L 195.0 109.0 L 194.0 108.0 L 190.0 107.0 L 188.0 105.0 L 187.0 101.0 L 186.0 100.0 L 187.0 96.0 L 191.0 92.0 Z M 192.0 71.0 L 199.0 71.0 L 203.0 75.0 L 204.0 77.0 L 204.0 81.0 L 203.0 83.0 L 199.0 87.0 L 197.0 88.0 L 193.0 88.0 L 191.0 87.0 L 187.0 83.0 L 187.0 81.0 L 186.0 80.0 L 188.0 74.0 Z M 42.0 90.0 L 47.0 81.0 L 58.0 70.0 L 75.0 63.0 L 95.0 64.0 L 121.0 75.0 L 145.0 76.0 L 149.0 87.0 L 158.0 97.0 L 175.0 103.0 L 175.0 149.0 L 78.0 150.0 L 64.0 146.0 L 48.0 133.0 L 42.0 123.0 L 39.0 113.0 L 39.0 100.0 Z M 76.0 75.0 L 75.0 76.0 L 72.0 76.0 L 63.0 81.0 L 55.0 90.0 L 55.0 92.0 L 53.0 94.0 L 52.0 101.0 L 51.0 102.0 L 51.0 111.0 L 52.0 112.0 L 53.0 118.0 L 56.0 124.0 L 60.0 129.0 L 65.0 133.0 L 77.0 138.0 L 88.0 138.0 L 99.0 134.0 L 108.0 126.0 L 113.0 117.0 L 113.0 114.0 L 114.0 113.0 L 114.0 99.0 L 111.0 91.0 L 106.0 84.0 L 98.0 78.0 L 90.0 75.0 Z M 77.0 120.0 L 78.0 119.0 L 83.0 119.0 L 85.0 121.0 L 87.0 126.0 L 91.0 130.0 L 94.0 131.0 L 95.0 133.0 L 91.0 135.0 L 85.0 136.0 L 79.0 130.0 L 78.0 128.0 L 78.0 125.0 L 77.0 124.0 Z M 86.0 120.0 L 88.0 118.0 L 92.0 116.0 L 94.0 118.0 L 98.0 119.0 L 99.0 120.0 L 107.0 120.0 L 108.0 122.0 L 102.0 129.0 L 97.0 129.0 L 90.0 125.0 Z M 71.0 114.0 L 72.0 114.0 L 76.0 118.0 L 76.0 120.0 L 75.0 121.0 L 75.0 128.0 L 77.0 132.0 L 77.0 134.0 L 76.0 135.0 L 71.0 134.0 L 66.0 130.0 L 66.0 122.0 L 67.0 121.0 L 68.0 117.0 Z M 69.0 105.0 L 70.0 106.0 L 70.0 110.0 L 71.0 111.0 L 65.0 117.0 L 63.0 121.0 L 63.0 123.0 L 61.0 126.0 L 56.0 120.0 L 55.0 116.0 L 63.0 107.0 Z M 112.0 104.0 L 112.0 113.0 L 110.0 115.0 L 106.0 116.0 L 105.0 117.0 L 98.0 117.0 L 97.0 116.0 L 95.0 116.0 L 93.0 114.0 L 96.0 109.0 L 101.0 109.0 L 102.0 108.0 L 106.0 107.0 L 111.0 103.0 Z M 72.0 98.0 L 71.0 102.0 L 69.0 104.0 L 63.0 104.0 L 59.0 106.0 L 54.0 110.0 L 53.0 109.0 L 53.0 102.0 L 55.0 98.0 L 59.0 96.0 L 62.0 96.0 L 63.0 95.0 L 65.0 95.0 L 66.0 96.0 L 70.0 96.0 Z M 105.0 87.0 L 108.0 90.0 L 110.0 94.0 L 110.0 97.0 L 109.0 99.0 L 103.0 105.0 L 99.0 107.0 L 97.0 107.0 L 96.0 106.0 L 95.0 101.0 L 101.0 95.0 L 102.0 91.0 L 103.0 90.0 L 103.0 88.0 Z M 57.0 91.0 L 63.0 84.0 L 66.0 83.0 L 67.0 84.0 L 70.0 84.0 L 74.0 87.0 L 75.0 87.0 L 77.0 89.0 L 79.0 93.0 L 77.0 95.0 L 73.0 96.0 L 68.0 93.0 L 65.0 93.0 L 64.0 92.0 L 58.0 93.0 Z M 89.0 77.0 L 97.0 80.0 L 100.0 84.0 L 100.0 89.0 L 99.0 90.0 L 99.0 92.0 L 97.0 96.0 L 94.0 99.0 L 90.0 95.0 L 91.0 86.0 L 90.0 85.0 L 90.0 82.0 L 88.0 79.0 Z M 71.0 80.0 L 73.0 78.0 L 75.0 78.0 L 76.0 77.0 L 81.0 77.0 L 86.0 82.0 L 87.0 84.0 L 87.0 86.0 L 88.0 87.0 L 88.0 93.0 L 87.0 94.0 L 84.0 94.0 L 82.0 93.0 L 79.0 87.0 Z M 2.0 40.0 L 2.0 45.0 L 13.0 46.0 L 13.0 186.0 L 19.0 186.0 L 19.0 45.0 L 15.0 40.0 Z"/>
</svg>
